<svg xmlns="http://www.w3.org/2000/svg" width="1279.997" height="1279.997" fill-rule="evenodd" clip-rule="evenodd" image-rendering="optimizeQuality" shape-rendering="geometricPrecision" text-rendering="geometricPrecision" viewBox="0 0 13333.33 13333.33" id="whatsapp-logo"><path fill="#3c3" d="M4368.28 2476.11l4596.93 0c1027.92,0 1867.22,841.16 1867.22,1867.37l0 4644.48c0,1028.14 -839.3,1869.26 -1867.22,1869.26l-4596.93 0c-1028.07,0 -1867.35,-841.12 -1867.35,-1869.26l0 -4644.48c0,-1026.2 839.28,-1867.37 1867.35,-1867.37l0 0z"></path><path fill="#fefefe" d="M6716.35 8886.92c-469.18,0 -904.19,-141.18 -1270.46,-379.6l-884.95 280.41 286.13 -852.62c-276.57,-373.83 -440.65,-843.08 -440.65,-1344.72 0,-74.39 5.7,-144.96 15.26,-219.35 112.55,-1161.62 1100.61,-2069.53 2294.67,-2069.53 1213.07,0 2210.65,932.72 2304.05,2111.5 3.84,61.03 3.84,122.06 3.84,177.39 0,1264.61 -1035.6,2296.54 -2307.89,2296.54zm2742.7 -2361.39c-36.19,-1474.44 -1249.26,-2655.12 -2742.7,-2655.12 -1476.45,0 -2679.98,1152.08 -2740.97,2603.62 -3.85,38.15 -3.85,80.11 -3.85,116.35 0,516.9 144.96,997.54 392.96,1411.49l-495.94 1461.09 1522.14 -482.58c392.96,215.51 846.79,335.7 1325.66,335.7 1516.29,0 2748.55,-1216.94 2748.55,-2725.7 0,-22.89 -5.85,-41.96 -5.85,-64.85z"></path><path fill="#fefefe" d="M7517.45 6901.28c-66.9,-17.17 -108.75,-32.43 -156.46,38.16 -68.72,108.72 -213.67,347.14 -354.76,276.57 -70.55,-32.43 -286.04,-103.01 -543.57,-331.9 -200.32,-179.3 -337.58,-394.83 -373.95,-459.67 -59.04,-110.63 127.76,-226.99 196.48,-366.22 22.85,-45.79 13.34,-83.93 -5.67,-116.35 -13.34,-32.43 -148.78,-364.31 -205.99,-495.92 -55.38,-135.44 -112.59,-112.54 -148.78,-112.54 -373.96,0 -549.42,265.13 -549.42,637.06 0,74.39 15.35,154.52 38.2,225.09 66.71,238.43 215.49,431.07 238.52,463.5 32.35,45.77 463.52,740.07 1148.19,1007.14 688.51,267 688.51,177.36 810.6,167.8 120.27,-9.49 396.8,-158.32 454.01,-318.54 55.38,-154.48 55.38,-289.93 36.19,-318.52 -22.85,-40.05 -583.59,-293.74 -583.59,-295.65z"></path></svg>